HIERARCHY
ROOT Hips
{
	OFFSET	0.00	0.00	0.00
	CHANNELS 6 Xposition Yposition Zposition Zrotation Xrotation Yrotation
	JOINT LeftUpLeg
	{
		OFFSET	 0.126116	-0.065224	 0.014019
		CHANNELS 3 Zrotation Xrotation Yrotation
		JOINT LeftLeg
		{
			OFFSET	 0.000000	 0.569914	 0.000000
			CHANNELS 3 Zrotation Xrotation Yrotation
			JOINT LeftFoot
			{
				OFFSET	 0.000000	 0.544423	 0.000000
				CHANNELS 3 Zrotation Xrotation Yrotation
				JOINT LeftToeBase
				{
					OFFSET	 0.000000	 0.207117	 0.000000
					CHANNELS 3 Zrotation Xrotation Yrotation
					End Site
					{
						OFFSET	 0.000000	 0.207117	 0.000000
					}
				}
			}
		}
	}
	JOINT RightUpLeg
	{
		OFFSET	-0.124023	-0.065224	 0.008373
		CHANNELS 3 Zrotation Xrotation Yrotation
		JOINT RightLeg
		{
			OFFSET	 0.000000	 0.570047	 0.000000
			CHANNELS 3 Zrotation Xrotation Yrotation
			JOINT RightFoot
			{
				OFFSET	 0.000000	 0.544354	 0.000000
				CHANNELS 3 Zrotation Xrotation Yrotation
				JOINT RightToeBase
				{
					OFFSET	 0.000000	 0.207540	 0.000000
					CHANNELS 3 Zrotation Xrotation Yrotation
					End Site
					{
						OFFSET	 0.000000	 0.207540	 0.000000
					}
				}
			}
		}
	}
	JOINT Spine
	{
		OFFSET	 0.000184	 0.117403	 0.007763
		CHANNELS 3 Zrotation Xrotation Yrotation
		JOINT Spine1
		{
			OFFSET	 0.000000	 0.137269	 0.000000
			CHANNELS 3 Zrotation Xrotation Yrotation
			JOINT Spine2
			{
				OFFSET	 0.000000	 0.156879	 0.000000
				CHANNELS 3 Zrotation Xrotation Yrotation
				JOINT LeftShoulder
				{
					OFFSET	 0.080501	 0.160143	 0.002496
					CHANNELS 3 Zrotation Xrotation Yrotation
					JOINT LeftArm
					{
						OFFSET	 0.000000	 0.164363	 0.000000
						CHANNELS 3 Zrotation Xrotation Yrotation
						JOINT LeftForeArm
						{
							OFFSET	 0.000000	 0.364576	 0.000000
							CHANNELS 3 Zrotation Xrotation Yrotation
							JOINT LeftHand
							{
								OFFSET	 0.000000	 0.360812	 0.000000
								CHANNELS 3 Zrotation Xrotation Yrotation
								JOINT LeftHandIndex1
								{
									OFFSET	 0.000000	 0.086006	 0.000000
									CHANNELS 3 Zrotation Xrotation Yrotation
									JOINT LeftHandIndex2
									{
										OFFSET	 0.000000	 0.047237	 0.000000
										CHANNELS 3 Zrotation Xrotation Yrotation
										JOINT LeftHandIndex3
										{
											OFFSET	-0.004284	 0.038165	 0.000551
											CHANNELS 3 Zrotation Xrotation Yrotation
											End Site
											{
												OFFSET	-0.004284	 0.038165	 0.000551
											}
										}
									}
								}
							}
						}
					}
				}
				JOINT Neck
				{
					OFFSET	 0.000000	 0.176489	 0.000000
					CHANNELS 3 Zrotation Xrotation Yrotation
					JOINT Head
					{
						OFFSET	 0.000000	 0.077941	 0.001747
						CHANNELS 3 Zrotation Xrotation Yrotation
						End Site
						{
							OFFSET	 0.000000	 0.077941	 0.001747
						}
					}
				}
				JOINT RightShoulder
				{
					OFFSET	-0.080363	 0.159706	-0.000306
					CHANNELS 3 Zrotation Xrotation Yrotation
					JOINT RightArm
					{
						OFFSET	 0.000000	 0.164196	 0.000000
						CHANNELS 3 Zrotation Xrotation Yrotation
						JOINT RightForeArm
						{
							OFFSET	 0.000000	 0.365611	 0.000000
							CHANNELS 3 Zrotation Xrotation Yrotation
							JOINT RightHand
							{
								OFFSET	 0.000000	 0.360648	 0.000000
								CHANNELS 3 Zrotation Xrotation Yrotation
								JOINT RightHandIndex1
								{
									OFFSET	 0.000000	 0.069977	 0.000000
									CHANNELS 3 Zrotation Xrotation Yrotation
									JOINT RightHandIndex2
									{
										OFFSET	 0.000000	 0.052305	 0.000000
										CHANNELS 3 Zrotation Xrotation Yrotation
										JOINT RightHandIndex3
										{
											OFFSET	 0.009002	 0.042196	 0.000782
											CHANNELS 3 Zrotation Xrotation Yrotation
											End Site
											{
												OFFSET	 0.009002	 0.042196	 0.000782
											}
										}
									}
								}
							}
						}
					}
				}
			}
		}
	}
}
MOTION
Frames:    9
Frame Time: 0.03333334
 0.650369	 1.115056	-0.180751	 19.261170	-16.968480	-89.085200	 159.003200	 44.196470	-5.668275	 26.410710	-78.289540	 33.854420	 51.226520	 28.198970	-54.941950	 0.208892	 43.786620	-4.361774	 147.015400	 67.198500	 19.142440	-10.421400	-64.524260	-11.281030	-51.210510	 60.498360	 73.474450	-1.645204	 33.299950	 2.847261	 5.221843	 12.082840	 1.094086	-10.624300	 0.907876	 6.668301	 12.909930	 20.596450	 1.106324	-103.427000	 4.263081	 91.167190	-17.135960	 67.116710	 28.077430	 44.289850	-1.620997	-4.239900	-22.253450	-3.733154	 47.938270	-2.835147	 1.868692	-8.321892	-6.918785	 7.632875	 1.923475	 4.963066	-4.014628	-0.346955	 11.520230	 2.739236	 2.471494	 0.812377	 6.727067	-44.246640	 88.447710	 6.770490	-91.531390	-65.267360	 42.461740	 72.016000	-75.861040	-5.826161	 12.014390	 16.215500	-11.252220	-7.385024	-3.147732	 16.398710	-2.105607	 14.265230	 21.687900	-6.402599	-8.239867	-2.131385	 0.447455
 0.720309	 1.151314	-0.194907	 14.540310	-9.254766	-68.467800	 168.560500	 15.988720	-9.388016	 7.255482	-53.869080	 13.288790	 54.800930	 43.556980	-72.696780	 1.655759	 39.944330	-6.214700	 138.791600	 47.674120	 39.057390	-7.771751	-57.489570	-8.590600	-49.070030	 56.684050	 68.468050	-1.649539	 33.367200	 2.851079	 4.264686	 8.913764	 1.158668	-8.977830	-0.987271	 5.608013	 12.780710	 14.321930	-1.502153	-101.535000	 0.197591	 91.460690	-4.991502	 68.756930	 15.747450	 33.188760	-1.107341	-4.809669	-17.067800	 1.607299	 44.768640	-2.491064	 10.905310	-7.847498	-7.020971	 8.149266	 2.026351	 4.963066	-4.014628	-0.346955	 15.705610	 2.420711	-0.148385	-2.533374	 3.771752	-46.222840	 88.751810	 1.020810	-91.800600	-67.729330	 31.303910	 86.346530	-74.859440	-5.646572	 11.113540	 15.409280	-17.422320	-18.457590	-2.912854	 16.676740	-2.549473	 14.313560	 22.392140	-6.609485	-8.239867	-2.131385	 0.447455
 0.815808	 1.154933	-0.196427	 11.929040	-5.067325	-50.459740	 167.119300	 14.874640	 4.210842	 5.609969	-46.675290	 10.145860	 73.882130	 47.579440	-94.669940	 1.714686	 28.616180	-7.457099	 133.886200	 36.273330	 52.651740	-6.458819	-52.542410	-6.638299	-43.269820	 52.928400	 60.232890	-1.725343	 33.076210	 3.030863	 2.836564	 7.499866	 0.874707	-5.447028	 1.330072	 4.983607	 8.339840	 9.573792	-5.226044	-101.589200	-2.879272	 95.180530	 18.621810	 62.105590	-10.369160	 34.080140	-1.089007	-5.048152	-5.453488	 3.027557	 43.734210	-3.640696	 14.657640	-7.281838	-7.085114	 8.357135	 2.065964	 4.963066	-4.014628	-0.346955	 16.693770	-5.304993	-3.688628	-0.923818	-2.747646	-48.190280	 87.620720	-4.978399	-90.905850	-51.915320	 18.437890	 91.085900	-68.766770	-5.330862	 10.921150	 21.633260	-29.497960	-11.367290	-2.909974	 16.494160	-2.865523	 14.359310	 23.045400	-6.802289	-8.239867	-2.131385	 0.447455
 0.903999	 1.180408	-0.188006	 9.023009	-3.745390	-41.885670	 164.535200	 14.841670	 11.550450	 4.902882	-42.829570	 8.364868	 77.329580	 45.995290	-91.974890	 1.397982	 23.660680	-7.474005	 151.399200	 38.028460	 31.326700	-6.232614	-51.555820	-5.923312	-49.802290	 55.056020	 65.721010	-1.887042	 32.021150	 3.536660	 1.788733	 6.781807	 0.196358	-5.408988	 1.858519	 3.709854	 7.026905	 7.594897	-7.897773	-105.096300	-9.900074	 98.814420	 31.135380	 53.961530	-22.725910	 36.523180	-1.142953	-5.272053	-1.790206	 1.934437	 35.892490	-5.237123	 15.125850	-6.681861	-7.151160	 8.582204	 2.107574	 4.963066	-4.014628	-0.346955	 14.972860	-8.049558	-7.967600	 1.634009	-2.880060	-48.239840	 88.201620	-3.587920	-91.100740	-35.452690	 10.367410	 83.136390	-58.145220	-4.688299	 10.780820	 36.973630	-35.748990	 10.580640	-2.907276	 16.321030	-3.165136	 14.380210	 23.560240	-6.949464	-8.239867	-2.131385	 0.447455
 0.967165	 1.214745	-0.172507	 5.364692	-3.926791	-39.342030	 165.029900	 10.150750	 13.410150	 3.771271	-35.503310	 5.683383	 74.269290	 45.353140	-83.557790	 1.398018	 23.660650	-7.474024	 170.391900	 33.751820	 5.922128	-4.648826	-43.240680	-4.016666	-48.861260	 53.402870	 62.378940	-1.722577	 30.301480	 3.665043	 0.908963	 6.085058	-1.150471	-5.097003	 0.802292	 2.217015	 5.222491	 5.744922	-8.550322	-108.531300	-18.054490	 101.104900	 35.722040	 50.467860	-27.371860	 39.020900	-1.214272	-5.541863	-3.305107	-3.573847	 24.788360	-6.564732	 15.575170	-6.157945	-7.216911	 8.816463	 2.151877	 4.963066	-4.014628	-0.346955	 12.120100	-8.484484	-11.300020	 2.084570	 0.119624	-46.820140	 90.295620	 0.368375	-91.852620	-26.611760	 8.150423	 71.620510	-54.541990	-4.367796	 10.553970	 47.586600	-31.318920	 27.945410	-2.904654	 16.155620	-3.451365	 14.399010	 24.041320	-7.086902	-8.239867	-2.131385	 0.447455
 1.008612	 1.242170	-0.158086	 1.588982	-4.459910	-38.681160	 167.269800	 3.882785	 13.576710	 2.740337	-27.408920	 2.869805	 71.771300	 45.327790	-76.366090	 1.398040	 23.660630	-7.474036	 176.828100	 24.641140	-7.253026	-2.965291	-30.974180	-1.662490	-40.672470	 50.033180	 53.070160	-1.354925	 28.431100	 3.477091	 0.014354	 5.280493	-3.009439	-2.506995	 0.800815	 0.559978	 1.573072	 3.094702	-7.886414	-110.631600	-25.027180	 102.875000	 38.687740	 49.402700	-31.634200	 39.996470	-1.233146	-5.874501	-6.090195	-10.644790	 13.044400	-7.544530	 15.542590	-5.795003	-7.279536	 9.039332	 2.195041	 4.963066	-4.014628	-0.346955	 8.932941	-9.427687	-13.675540	 1.235981	 2.946511	-44.777310	 92.777080	 3.563776	-92.681660	-22.486240	 6.605761	 61.992000	-51.874200	-4.242005	 11.156040	 47.522490	-25.153590	 37.902560	-2.902457	 15.997090	-3.725571	 14.418280	 24.502290	-7.219214	-8.239867	-2.131385	 0.447455
 1.022363	 1.251624	-0.148603	 1.119388	-4.503795	-40.566040	 167.832300	 1.287364	 11.359820	 2.096371	-21.640620	 1.266359	 69.648540	 45.439160	-72.056920	 1.398039	 23.660620	-7.474037	 176.526300	 21.123430	-10.955090	-2.146125	-23.485670	-0.324847	-37.062870	 48.210350	 48.700310	-1.248804	 27.690390	 3.410197	-0.653435	 4.621015	-4.978007	 0.397178	 1.431315	-0.489228	-2.265897	 0.937753	-5.469371	-111.460700	-28.391300	 102.736300	 38.870430	 49.758820	-30.899910	 40.470460	-1.244157	-6.231489	-10.873680	-7.391567	 4.398090	-7.534423	 15.877810	-5.729728	-7.317320	 9.104234	 2.209827	 4.963066	-4.014628	-0.346955	 6.726440	-10.179410	-13.874550	 0.877381	 3.212720	-43.222430	 92.873330	 6.210890	-93.374640	-21.329960	 8.583266	 58.673420	-52.540250	-4.183747	 10.859050	 40.489030	-19.014270	 39.801600	-2.900092	 15.848630	-3.982404	 14.437420	 24.933840	-7.343597	-8.239867	-2.131385	 0.447455
 1.024868	 1.254893	-0.144260	 0.677589	-4.475875	-41.935720	 168.375900	-0.126612	 9.888569	 1.809580	-18.770860	 0.148111	 68.618270	 45.895400	-69.991760	 1.398033	 23.660610	-7.474036	 176.273000	 18.864120	-13.390890	-1.690558	-18.896420	 0.742008	-35.172410	 47.208410	 46.089940	-1.185087	 27.241470	 3.370355	-1.089503	 4.132657	-7.023460	 3.344906	 3.020281	-1.807733	-5.579796	-1.307854	-2.963752	-111.953100	-30.307940	 102.610600	 39.743870	 49.434530	-30.972600	 40.384400	-1.242813	-6.602796	-14.216680	-3.511134	-3.539019	-7.494051	 16.288800	-5.676510	-7.343686	 9.101315	 2.211884	 4.963066	-4.014628	-0.346955	 5.455524	-10.488930	-13.713510	 0.351075	 2.924432	-42.205210	 92.933740	 7.945625	-93.850170	-20.770760	 10.018080	 56.636440	-53.516600	-4.111517	 10.392890	 33.921780	-14.210780	 40.982330	-2.898092	 15.709230	-4.223479	 14.456380	 25.338960	-7.460881	-8.239867	-2.131385	 0.447455
 1.022662	 1.255292	-0.144313	 0.321691	-4.393667	-42.585880	 168.844400	-0.469140	 9.541701	 1.745935	-18.286300	-0.116147	 68.467640	 46.062140	-69.849880	 1.398020	 23.660610	-7.474029	 176.601600	 18.265520	-13.885500	-1.596675	-17.916270	 0.953240	-35.175210	 46.925480	 45.622520	-1.182028	 27.224030	 3.368112	-1.239684	 3.877895	-8.870307	 4.955780	 3.888258	-2.817796	-7.534150	-2.619527	-0.479366	-111.900400	-30.070910	 102.574200	 41.031390	 48.758610	-31.672000	 39.355940	-1.215715	-7.027850	-16.010790	-0.365605	-9.490869	-7.403647	 16.841560	-5.639775	-7.353663	 8.992109	 2.194072	 4.963066	-4.014628	-0.346955	 5.583271	-10.132730	-12.943860	-0.412067	 1.732520	-42.070560	 92.901210	 8.352404	-94.001880	-20.704280	 10.714850	 56.465660	-54.106920	-3.908155	 9.424891	 28.440740	-10.243100	 40.505260	-2.896065	 15.576160	-4.453616	 14.475390	 25.725610	-7.573266	-8.239867	-2.131385	 0.447455
